<svg width="45" height="45" viewBox="0 0 45 45" fill="none" xmlns="http://www.w3.org/2000/svg">
<rect width="45" height="45" rx="10" fill="#fff"/>
<path d="M29.7917 13.125H15.2083C14.0625 13.125 13.125 14.0625 13.125 15.2083V29.7917C13.125 30.9375 14.0625 31.875 15.2083 31.875H29.7917C30.9375 31.875 31.875 30.9375 31.875 29.7917V15.2083C31.875 14.0625 30.9375 13.125 29.7917 13.125ZM29.7917 15.2083V24.5833H26.0833C25.7083 24.5833 25.375 24.7812 25.1875 25.1042C24.6458 26.0417 23.6562 26.6667 22.5 26.6667C21.3438 26.6667 20.3542 26.0417 19.8125 25.1042C19.7216 24.9467 19.5911 24.8158 19.4339 24.7245C19.2768 24.6331 19.0985 24.5844 18.9167 24.5833H15.2083V15.2083H29.7917Z" fill="#202342"/>
</svg>
