<svg width="8" height="14" viewBox="0 0 8 14" fill="none" xmlns="http://www.w3.org/2000/svg">
<path fill-rule="evenodd" clip-rule="evenodd" d="M7.95423 5.92867C7.98462 5.87027 7.99983 5.80667 7.99983 5.74307C7.99983 5.66307 7.97583 5.58387 7.92863 5.51547L4.32862 0.315466C4.25382 0.207466 4.13102 0.143066 3.99983 0.143066C3.86862 0.143066 3.74582 0.207466 3.67102 0.315466L0.0710247 5.51547C-0.0133753 5.63747 -0.0233753 5.79707 0.0454247 5.92867C0.114625 6.06067 0.251025 6.14307 0.399825 6.14307H7.59982C7.74862 6.14307 7.88503 6.06067 7.95423 5.92867Z" fill="#6C757D"/>
<path fill-rule="evenodd" clip-rule="evenodd" d="M0.0456 8.2144C0.0152002 8.2728 0 8.3364 0 8.4C0 8.48 0.0239997 8.5592 0.0711999 8.6276L3.6712 13.8276C3.746 13.9356 3.8688 14 4 14C4.1312 14 4.254 13.9356 4.3288 13.8276L7.9288 8.6276C8.0132 8.5056 8.0232 8.346 7.9544 8.2144C7.8852 8.0824 7.7488 8 7.6 8H0.4C0.2512 8 0.1148 8.0824 0.0456 8.2144Z" fill="#6C757D"/>
</svg>
