<svg width="20" height="17" viewBox="0 0 20 17" fill="none" xmlns="http://www.w3.org/2000/svg">
<path d="M5.29169 1.20833H19.875V3.29167H5.29169V1.20833ZM5.29169 9.54167V7.45833H19.875V9.54167H5.29169ZM2.16669 0.6875C2.58109 0.6875 2.97852 0.85212 3.27154 1.14515C3.56457 1.43817 3.72919 1.8356 3.72919 2.25C3.72919 2.6644 3.56457 3.06183 3.27154 3.35485C2.97852 3.64788 2.58109 3.8125 2.16669 3.8125C1.75229 3.8125 1.35486 3.64788 1.06183 3.35485C0.768807 3.06183 0.604187 2.6644 0.604187 2.25C0.604187 1.8356 0.768807 1.43817 1.06183 1.14515C1.35486 0.85212 1.75229 0.6875 2.16669 0.6875ZM2.16669 6.9375C2.58109 6.9375 2.97852 7.10212 3.27154 7.39515C3.56457 7.68817 3.72919 8.0856 3.72919 8.5C3.72919 8.9144 3.56457 9.31183 3.27154 9.60485C2.97852 9.89788 2.58109 10.0625 2.16669 10.0625C1.75229 10.0625 1.35486 9.89788 1.06183 9.60485C0.768807 9.31183 0.604187 8.9144 0.604187 8.5C0.604187 8.0856 0.768807 7.68817 1.06183 7.39515C1.35486 7.10212 1.75229 6.9375 2.16669 6.9375ZM5.29169 15.7917V13.7083H19.875V15.7917H5.29169ZM2.16669 13.1875C2.58109 13.1875 2.97852 13.3521 3.27154 13.6451C3.56457 13.9382 3.72919 14.3356 3.72919 14.75C3.72919 15.1644 3.56457 15.5618 3.27154 15.8549C2.97852 16.1479 2.58109 16.3125 2.16669 16.3125C1.75229 16.3125 1.35486 16.1479 1.06183 15.8549C0.768807 15.5618 0.604187 15.1644 0.604187 14.75C0.604187 14.3356 0.768807 13.9382 1.06183 13.6451C1.35486 13.3521 1.75229 13.1875 2.16669 13.1875Z" fill="#e9ecef"/>
</svg>
