<svg width="45" height="45" viewBox="0 0 45 45" fill="none" xmlns="http://www.w3.org/2000/svg">
<path d="M17.2917 15.2083H31.8751V17.2917H17.2917V15.2083ZM17.2917 23.5417V21.4583H31.8751V23.5417H17.2917ZM14.1667 14.6875C14.5811 14.6875 14.9786 14.8521 15.2716 15.1451C15.5646 15.4382 15.7292 15.8356 15.7292 16.25C15.7292 16.6644 15.5646 17.0618 15.2716 17.3549C14.9786 17.6479 14.5811 17.8125 14.1667 17.8125C13.7523 17.8125 13.3549 17.6479 13.0619 17.3549C12.7689 17.0618 12.6042 16.6644 12.6042 16.25C12.6042 15.8356 12.7689 15.4382 13.0619 15.1451C13.3549 14.8521 13.7523 14.6875 14.1667 14.6875ZM14.1667 20.9375C14.5811 20.9375 14.9786 21.1021 15.2716 21.3951C15.5646 21.6882 15.7292 22.0856 15.7292 22.5C15.7292 22.9144 15.5646 23.3118 15.2716 23.6049C14.9786 23.8979 14.5811 24.0625 14.1667 24.0625C13.7523 24.0625 13.3549 23.8979 13.0619 23.6049C12.7689 23.3118 12.6042 22.9144 12.6042 22.5C12.6042 22.0856 12.7689 21.6882 13.0619 21.3951C13.3549 21.1021 13.7523 20.9375 14.1667 20.9375ZM17.2917 29.7917V27.7083H31.8751V29.7917H17.2917ZM14.1667 27.1875C14.5811 27.1875 14.9786 27.3521 15.2716 27.6451C15.5646 27.9382 15.7292 28.3356 15.7292 28.75C15.7292 29.1644 15.5646 29.5618 15.2716 29.8549C14.9786 30.1479 14.5811 30.3125 14.1667 30.3125C13.7523 30.3125 13.3549 30.1479 13.0619 29.8549C12.7689 29.5618 12.6042 29.1644 12.6042 28.75C12.6042 28.3356 12.7689 27.9382 13.0619 27.6451C13.3549 27.3521 13.7523 27.1875 14.1667 27.1875Z" fill="#E9ECEF"/>
</svg>
