<svg width="12" height="12" viewBox="0 0 12 12" fill="none" xmlns="http://www.w3.org/2000/svg">
<path d="M11.5714 0.750004H8.35714L8.10536 0.311723C8.05202 0.218023 7.96986 0.139205 7.86812 0.084135C7.76638 0.0290653 7.6491 -7.09679e-05 7.52946 4.10923e-06H4.46786C4.34849 -0.000397388 4.23142 0.0286302 4.13004 0.0837612C4.02866 0.138892 3.94708 0.217897 3.89464 0.311723L3.64286 0.750004H0.428571C0.314907 0.750004 0.205898 0.789513 0.125526 0.859839C0.0451529 0.930165 0 1.02555 0 1.125L0 1.875C0 1.97446 0.0451529 2.06984 0.125526 2.14017C0.205898 2.21049 0.314907 2.25 0.428571 2.25H11.5714C11.6851 2.25 11.7941 2.21049 11.8745 2.14017C11.9548 2.06984 12 1.97446 12 1.875V1.125C12 1.02555 11.9548 0.930165 11.8745 0.859839C11.7941 0.789513 11.6851 0.750004 11.5714 0.750004ZM1.425 10.9453C1.44544 11.2309 1.58951 11.499 1.82787 11.6949C2.06624 11.8909 2.38098 12 2.70804 12H9.29196C9.61902 12 9.93376 11.8909 10.1721 11.6949C10.4105 11.499 10.5546 11.2309 10.575 10.9453L11.1429 3H0.857143L1.425 10.9453Z" fill="#25294C"/>
</svg>
